<?xml version="1.0" standalone="no"?><!DOCTYPE svg PUBLIC "-//W3C//DTD SVG 1.1//EN" "http://www.w3.org/Graphics/SVG/1.1/DTD/svg11.dtd"><svg t="1763973132054" class="icon" viewBox="0 0 1515 1024" version="1.1" xmlns="http://www.w3.org/2000/svg" p-id="5926" data-spm-anchor-id="a313x.search_index.0.i0.7e5b3a81FTzUkc" xmlns:xlink="http://www.w3.org/1999/xlink" width="47.34375" height="32"><path d="M1236.802251 274.345586c-36.133222 0-69.802724 29.43363-74.730165 65.39396l-36.696474 267.797276q-6.029633 43.763463-41.881905 75.897191-35.852272 32.15669-80.694963 32.15669-43.567608 0-70.537518-31.508342-27.034744-31.573177-20.790346-76.586061l22.173488-162.513729c0.691571-32.459253-23.684948-57.788032-57.226131-57.788032h-87.867309c-33.539832 0-64.961728 25.370652-73.174131 57.788032l-22.862358 162.511028q-6.224137 45.058808-42.007521 76.58606-35.794191 31.573177-79.311822 31.508343-43.567608 0-71.099419-32.15669-27.554773-32.15669-21.476514-75.897192l49.214986-355.324201c5.230004-34.578539-15.263183-70.753634-46.550008-85.40629 0 0-370.54011-154.430996-394.701863-164.415549-24.506189-10.026426-52.210892 12.448274-61.676767 49.921415L2.256568 141.692316c-9.509098 37.386694 11.929596 80.003393 47.500917 94.569602l248.398175 102.825229-37.216503 268.492898q-18.737246 135.111588 63.407044 230.973833 82.14294 95.952744 216.671015 95.909521 124.219348 0 226.698792-83.634139 81.887653 83.703026 204.871088 83.638191 134.532127 0 243.208693-95.909521 108.660357-95.887909 127.417863-230.973833s38.900856-283.36167 39.6343-288.332335c3.414631-24.718252-23.382386-44.907527-59.473736-44.907526h-86.446347z" fill="#2FB7EC" p-id="5927"></path></svg>